<svg xmlns="http://www.w3.org/2000/svg" role="img" aria-label="Server CPU at maximum stable throughput" viewBox="0 0 920 320"><style>text{font-family:system-ui,sans-serif;fill:#334155}.title{font-size:18px;font-weight:600}.label{font-size:12px}.grid{stroke:#cbd5e1;stroke-width:1}.axis{stroke:#64748b;stroke-width:1.2}</style><rect width="100%" height="100%" rx="12" fill="#fff"/><text x="24" y="30" class="title">Server CPU at maximum stable throughput</text><line x1="220" y1="62" x2="220" y2="282" class="axis"/><text x="210" y="80" text-anchor="end" class="label">02-cache-hotpath</text><rect x="220" y="64" width="398.02" height="15" rx="3" fill="#0f766e"/><text x="623.02" y="76" class="label">204.5%</text><rect x="220" y="83" width="349.70" height="15" rx="3" fill="#f59e0b"/><text x="574.70" y="95" class="label">179.6%</text><text x="210" y="122" text-anchor="end" class="label">06-local-answers</text><rect x="220" y="106" width="398.09" height="15" rx="3" fill="#0f766e"/><text x="623.09" y="118" class="label">204.5%</text><rect x="220" y="125" width="301.19" height="15" rx="3" fill="#f59e0b"/><text x="526.19" y="137" class="label">154.7%</text><text x="210" y="164" text-anchor="end" class="label">08-domain-set</text><rect x="220" y="148" width="369.01" height="15" rx="3" fill="#0f766e"/><text x="594.01" y="160" class="label">189.6%</text><rect x="220" y="167" width="628.69" height="15" rx="3" fill="#f59e0b"/><text x="853.69" y="179" class="label">323.0%</text><text x="210" y="206" text-anchor="end" class="label">43-composite-provider-chain</text><rect x="220" y="190" width="378.94" height="15" rx="3" fill="#0f766e"/><text x="603.94" y="202" class="label">194.7%</text><rect x="220" y="209" width="670.00" height="15" rx="3" fill="#f59e0b"/><text x="895.00" y="221" class="label">344.2%</text><text x="210" y="248" text-anchor="end" class="label">47-server-local-udp</text><rect x="220" y="232" width="388.58" height="15" rx="3" fill="#0f766e"/><text x="613.58" y="244" class="label">199.6%</text><rect x="220" y="251" width="291.54" height="15" rx="3" fill="#f59e0b"/><text x="516.54" y="263" class="label">149.8%</text><rect x="220" y="296" width="12" height="12" fill="#0f766e"/><text x="238" y="306" class="label">OxiDNS</text><rect x="310" y="296" width="12" height="12" fill="#f59e0b"/><text x="328" y="306" class="label">mosdns</text></svg>